<svg version="1.1" id="Capa_1" xmlns="http://www.w3.org/2000/svg" xmlns:xlink="http://www.w3.org/1999/xlink" x="0px" y="0px"
	 viewBox="0 0 512 512" style="enable-background:new 0 0 512 512;" xml:space="preserve">
<g>
	<g>
		<path d="M492,352c11.046,0,20-8.954,20-20V120c0-44.112-35.888-80-80-80h-26V20c0-11.046-8.954-20-20-20c-11.046,0-20,8.954-20,20
			v20h-91V20c0-11.046-8.954-20-20-20c-11.046,0-20,8.954-20,20v20h-90V20c0-11.046-8.954-20-20-20s-20,8.954-20,20v20H80
			C35.888,40,0,75.888,0,120v312c0,44.112,35.888,80,80,80h352c44.112,0,80-35.888,80-80c0-11.046-8.954-20-20-20
			c-11.046,0-20,8.954-20,20c0,22.056-17.944,40-40,40H80c-22.056,0-40-17.944-40-40V120c0-22.056,17.944-40,40-40h25v20
			c0,11.046,8.954,20,20,20s20-8.954,20-20V80h90v20c0,11.046,8.954,20,20,20s20-8.954,20-20V80h91v20c0,11.046,8.954,20,20,20
			c11.046,0,20-8.954,20-20V80h26c22.056,0,40,17.944,40,40v212C472,343.046,480.954,352,492,352z" fill="#8ab5e6"/>
	</g>
</g>
<g>
	<g>
		<path d="M364.803,196.042c-6.854-3.36-15.021-2.525-21.054,2.15l-40,31c-8.731,6.766-10.323,19.329-3.558,28.059
			c6.768,8.732,19.332,10.322,28.06,3.558l7.749-6.005V378c0,11.046,8.954,20,20,20c11.046,0,20-8.954,20-20V214
			C376,206.368,371.656,199.4,364.803,196.042z" fill="#8ab5e6"/>
	</g>
</g>
<g>
	<g>
		<path d="M254,258.324C254,222.856,225.053,194,189.471,194c-0.177,0-0.349,0.022-0.525,0.027
			c-0.176-0.005-0.348-0.027-0.525-0.027c-23.334,0-44.063,11.031-55.447,29.508c-5.794,9.404-2.868,21.725,6.536,27.519
			c3.271,2.015,6.894,2.976,10.473,2.976c6.711,0,13.267-3.378,17.046-9.511C171.015,238.02,179.212,234,188.42,234
			c0.177,0,0.349-0.022,0.525-0.027c0.176,0.005,0.348,0.027,0.525,0.027c13.297,0,24.53,11.139,24.53,24.324
			c0,7.55-10.055,15.511-16.387,19.174C188.68,279.5,182,287.463,182,297c0,9.641,6.822,17.685,15.902,19.576l-0.189,0.049
			C197.875,316.69,214,323.607,214,333.46c0,13.412-10.912,24.324-24.324,24.324c-0.841,0-1.666,0.069-2.479,0.17
			c-7.81-0.468-15.788-5.345-20.163-12.445c-5.795-9.406-18.118-12.329-27.519-6.536c-9.404,5.794-12.33,18.115-6.536,27.519
			C144.954,385.927,166.197,398,188.42,398c1.053,0,2.078-0.106,3.087-0.262C226.13,396.762,254,368.314,254,333.459
			c0-15.647-7.11-28.04-16.118-37.176C246.52,287.087,254,274.475,254,258.324z" fill="#8ab5e6"/>
	</g>
</g>
</svg>