<svg id="dissapprove" enable-background="new 0 0 300 300" height="512" viewBox="0 0 300 300" width="512" xmlns="http://www.w3.org/2000/svg"><path d="m199.467 198h-18.933c-12.446 0-22.534-10.088-22.534-22.533v-122.934c0-12.445 10.088-22.533 22.533-22.533h18.933c12.446 0 22.534 10.088 22.534 22.533v122.933c0 12.446-10.088 22.534-22.533 22.534z" fill="#816982"/><path d="m199.469 206h-18.938c-16.836 0-30.531-13.695-30.531-30.531v-122.938c0-16.836 13.695-30.531 30.531-30.531h18.938c16.836 0 30.531 13.695 30.531 30.531v122.938c0 16.836-13.695 30.531-30.531 30.531zm-18.938-168c-8.015 0-14.531 6.516-14.531 14.531v122.938c0 8.016 6.516 14.531 14.531 14.531h18.938c8.016 0 14.531-6.516 14.531-14.531v-122.938c0-8.015-6.516-14.531-14.531-14.531z" fill="#5c128d"/><path d="m175.467 198h-122.934c-12.445 0-22.533-10.088-22.533-22.533v-122.934c0-12.445 10.088-22.533 22.533-22.533h122.933c12.446 0 22.534 10.088 22.534 22.533v122.933c0 12.446-10.088 22.534-22.533 22.534z" fill="#26deeb"/><path d="m175.469 206h-122.938c-16.836 0-30.531-13.695-30.531-30.531v-122.938c0-16.836 13.695-30.531 30.531-30.531h122.938c16.836 0 30.531 13.695 30.531 30.531v122.938c0 16.836-13.695 30.531-30.531 30.531zm-122.938-168c-8.015 0-14.531 6.516-14.531 14.531v122.938c0 8.015 6.516 14.531 14.531 14.531h122.938c8.016 0 14.531-6.516 14.531-14.531v-122.938c0-8.015-6.516-14.531-14.531-14.531z" fill="#5c128d"/><path d="m134.201 116 25.614-25.614c5.58-5.58 5.58-14.621 0-20.201s-14.621-5.58-20.201 0l-25.614 25.614-25.614-25.614c-5.58-5.58-14.621-5.58-20.201 0s-5.58 14.621 0 20.201l25.614 25.614-25.614 25.614c-5.58 5.58-5.58 14.621 0 20.201 2.79 2.79 6.445 4.185 10.1 4.185s7.31-1.395 10.1-4.185l25.615-25.614 25.614 25.614c2.79 2.79 6.445 4.185 10.1 4.185s7.31-1.395 10.1-4.185c5.58-5.58 5.58-14.621 0-20.201z" fill="#e9642c"/><path d="m149.711 174c-5.945 0-11.539-2.32-15.75-6.531l-19.961-19.953-19.961 19.953c-8.422 8.43-23.094 8.414-31.508 0-4.211-4.203-6.531-9.805-6.531-15.75 0-5.953 2.32-11.555 6.531-15.766l19.953-19.953-19.953-19.961c-4.211-4.203-6.531-9.805-6.531-15.75 0-5.953 2.32-11.555 6.531-15.766 8.414-8.414 23.094-8.406 31.516.008l19.953 19.953 19.961-19.953c8.398-8.414 23.094-8.43 31.516 0 4.203 4.203 6.523 9.805 6.523 15.758 0 5.945-2.32 11.547-6.531 15.758l-19.953 19.953 19.953 19.961c4.211 4.203 6.531 9.805 6.531 15.758 0 5.945-2.32 11.547-6.531 15.758-4.211 4.203-9.805 6.523-15.758 6.523zm-35.711-45.797c2.047 0 4.094.781 5.656 2.344l25.617 25.609c2.383 2.375 6.516 2.375 8.883 0 1.195-1.188 1.844-2.766 1.844-4.438 0-1.68-.648-3.258-1.844-4.438l-25.609-25.625c-3.125-3.125-3.125-8.188 0-11.312l25.609-25.617c1.195-1.188 1.844-2.766 1.844-4.438 0-1.68-.648-3.258-1.844-4.438-2.383-2.414-6.523-2.391-8.875-.008l-25.625 25.609c-3.125 3.125-8.188 3.125-11.312 0l-25.617-25.607c-2.375-2.391-6.516-2.398-8.875 0-1.204 1.187-1.852 2.765-1.852 4.445 0 1.672.648 3.25 1.844 4.43l25.609 25.625c3.125 3.125 3.125 8.188 0 11.312l-25.609 25.617c-1.195 1.188-1.844 2.766-1.844 4.445 0 1.672.648 3.25 1.844 4.43 2.367 2.383 6.5 2.383 8.883.008l25.617-25.609c1.562-1.563 3.609-2.344 5.656-2.344z" fill="#5d038e"/><circle cx="206" cy="206" fill="#d6d6d6" r="64"/><g fill="#5c128d"><path d="m206 278c-39.703 0-72-32.297-72-72s32.297-72 72-72 72 32.297 72 72-32.297 72-72 72zm0-128c-30.875 0-56 25.125-56 56s25.125 56 56 56 56-25.125 56-56-25.125-56-56-56z"/><circle cx="190" cy="190" r="8"/><circle cx="222" cy="190" r="8"/><path d="m223.773 238h-35.547c-3.164 0-6.023-1.859-7.312-4.75-1.281-2.891-.742-6.266 1.375-8.609 6.102-6.766 14.742-10.641 23.711-10.641s17.609 3.875 23.711 10.641c2.117 2.344 2.656 5.719 1.375 8.609-1.289 2.891-4.148 4.75-7.313 4.75z"/></g></svg>