<svg id="devil" enable-background="new 0 0 300 300" height="512" viewBox="0 0 300 300" width="512" xmlns="http://www.w3.org/2000/svg"><g><circle cx="161.158" cy="162.334" fill="#edebdc" r="86"/><path d="m237.451 175.256c-1.023 0-2.047-.391-2.828-1.172-1.562-1.562-1.562-4.094 0-5.656l11.793-11.789c1.562-1.562 4.094-1.562 5.656 0s1.562 4.094 0 5.656l-11.793 11.789c-.781.781-1.805 1.172-2.828 1.172z" fill="#4c241d"/><path d="m249.244 175.256c-1.023 0-2.047-.391-2.828-1.172l-11.793-11.789c-1.562-1.562-1.562-4.094 0-5.656s4.094-1.562 5.656 0l11.793 11.789c1.562 1.562 1.562 4.094 0 5.656-.781.781-1.805 1.172-2.828 1.172z" fill="#4c241d"/><g><g><path d="m139.7 200.334h6.915c14.438-12.668 69.161-62.775 69.161-94.504 0-20.709-18.063-37.496-40.344-37.496-13.259 0-24.921 6.025-32.275 15.203-7.354-9.178-19.016-15.203-32.276-15.203-22.281 0-40.344 16.787-40.344 37.496.002 31.729 54.725 81.836 69.163 94.504z" fill="#e66353"/><path d="m146.615 204.334h-6.914c-.973 0-1.91-.352-2.637-.992-16.547-14.516-70.523-64.449-70.523-97.512 0-22.883 19.891-41.496 44.34-41.496 12.375 0 23.895 4.762 32.277 13.203 8.383-8.441 19.902-13.203 32.273-13.203 24.453 0 44.344 18.613 44.344 41.496 0 33.062-53.977 82.996-70.523 97.512-.727.64-1.664.992-2.637.992zm-5.402-8h3.891c32.449-28.66 66.672-67.176 66.672-90.504 0-18.469-16.305-33.496-36.344-33.496-11.547 0-22.172 4.996-29.152 13.703-1.516 1.898-4.727 1.898-6.242 0-6.98-8.707-17.605-13.703-29.156-13.703-20.039 0-36.34 15.027-36.34 33.496-.001 23.328 34.222 61.844 66.671 90.504z" fill="#4c241d"/></g></g><circle cx="215.158" cy="192.334" fill="#4c241d" r="4.099"/><path d="m51.158 148.334c-6.617 0-12-5.383-12-12s5.383-12 12-12 12 5.383 12 12-5.383 12-12 12zm0-16c-2.207 0-4 1.793-4 4s1.793 4 4 4 4-1.793 4-4-1.793-4-4-4z" fill="#4c241d"/><g><path d="m194.855 81.924c12.863-5.497 33.151-17.718 24.297-37.794 0 0 44.828 35.643-19.479 66.246" fill="#e66353"/><path d="m199.678 114.377c-1.496 0-2.93-.84-3.617-2.281-.949-1.996-.102-4.383 1.895-5.332 20.074-9.551 30.926-20.309 32.258-31.969.789-6.898-1.902-13.188-5.094-18.004-.254 1.906-.742 3.781-1.469 5.625-4.531 11.484-17.309 18.949-27.227 23.188-2.023.855-4.383-.074-5.25-2.109-.867-2.031.078-4.379 2.109-5.25 6.973-2.977 19.219-9.375 22.922-18.762 1.699-4.305 1.465-8.797-.715-13.738-.742-1.684-.242-3.656 1.215-4.781 1.457-1.117 3.492-1.113 4.934.035.77.613 18.758 15.16 16.523 34.703-1.668 14.586-14.039 27.469-36.77 38.289-.554.261-1.14.386-1.714.386z" fill="#4c241d"/></g><g><path d="m90.352 81.924c-12.862-5.497-33.151-17.718-24.296-37.794 0 0-44.828 35.643 19.479 66.246" fill="#e66353"/><path d="m85.533 114.377c-.574 0-1.16-.125-1.715-.387-22.734-10.82-35.105-23.703-36.773-38.289-2.23-19.547 15.754-34.09 16.523-34.703 1.438-1.148 3.473-1.152 4.934-.035 1.457 1.125 1.957 3.098 1.215 4.781-2.18 4.941-2.414 9.434-.715 13.738 3.703 9.387 15.949 15.785 22.922 18.762 2.031.871 2.977 3.219 2.109 5.25-.867 2.035-3.234 2.969-5.25 2.109-9.918-4.238-22.695-11.703-27.227-23.187-.723-1.832-1.211-3.695-1.465-5.59-3.195 4.836-5.891 11.133-5.094 18.008 1.355 11.645 12.207 22.387 32.258 31.93 1.996.949 2.844 3.336 1.895 5.332-.687 1.441-2.121 2.281-3.617 2.281z" fill="#4c241d"/></g><g fill="#4c241d"><path d="m163.162 140.334c-1.219 0-2.418-.551-3.203-1.602-.539-.719-.801-1.562-.801-2.398-1.586 0-3.09-.949-3.715-2.516-.82-2.051.18-4.379 2.23-5.199l20-8c1.859-.734 3.988.004 4.973 1.754.98 1.75.516 3.957-1.09 5.16l-16 12c-.718.539-1.558.801-2.394.801z"/><path d="m123.154 140.334c-.836 0-1.676-.262-2.395-.801l-16-12c-1.605-1.203-2.07-3.41-1.09-5.16.984-1.75 3.117-2.488 4.973-1.754l20 8c2.051.82 3.051 3.148 2.23 5.199-.625 1.566-2.129 2.516-3.715 2.516 0 .836-.262 1.68-.801 2.398-.784 1.051-1.983 1.602-3.202 1.602z"/><path d="m144.568 259.869c-1.422 0-2.781-.137-4.082-.406-9.086-1.875-13.57-9.707-18.32-18-3.629-6.344-7.387-12.902-13.57-18.055-10.5-8.754-20.852-10.898-29.988-12.789-10.66-2.211-20.73-4.297-23.371-17.5-4.602-22.996 37.996-35.316 42.871-36.645 2.117-.586 4.324.672 4.91 2.805.582 2.133-.676 4.332-2.805 4.914-10.48 2.867-39.793 14.043-37.133 27.355 1.539 7.691 6.371 9 17.148 11.234 9.559 1.98 21.453 4.445 33.492 14.477 7.285 6.074 11.59 13.594 15.391 20.227 4.156 7.262 7.438 12.996 12.992 14.141 7.398 1.562 20.027-4.523 38.656-18.492 20.816-15.617 38.051-21.758 51.223-18.223 10.914 2.918 14.695 11.484 14.852 11.848.871 2.027-.07 4.379-2.102 5.25-2.016.871-4.383-.066-5.25-2.102-.086-.184-2.57-5.48-9.762-7.32-7.348-1.855-20.961-.457-44.164 16.945-18.675 14.008-31.316 20.336-40.988 20.336z"/></g><g><path d="m252.338 255.341-25.224-20.094 29.729-11.839z" fill="#e66353"/><path d="m252.338 259.342c-.891 0-1.773-.297-2.492-.871l-25.223-20.094c-1.117-.891-1.672-2.305-1.465-3.715s1.152-2.602 2.477-3.129l29.727-11.84c1.328-.527 2.828-.312 3.953.57 1.121.879 1.688 2.293 1.488 3.703l-4.504 31.934c-.199 1.422-1.148 2.625-2.48 3.156-.481.192-.981.286-1.481.286zm-17.34-22.93 14.355 11.438 2.566-18.176z" fill="#4c241d"/></g></g></svg>