<?xml version="1.0"?>
<svg xmlns="http://www.w3.org/2000/svg" viewBox="0 0 512 512" width="512" height="512"><g id="Fill_out_line" data-name="Fill out line"><path d="M218.08008,389.80005,176,488l-41.81006-97.55-.27-.6499c.23.03979.4502.05981.68018.07983A404.42883,404.42883,0,0,0,176,392,400.76406,400.76406,0,0,0,218.08008,389.80005Z" style="fill:#529ddf"/><path d="M301.3999,371.93994,281.08984,476.74l-61.92993-87.05A396.59883,396.59883,0,0,0,301.3999,371.93994Z" style="fill:#7ab355"/><path d="M381.41016,443.47,302.5,371.58008A396.71424,396.71424,0,0,0,379.0498,336.7Z" style="fill:#e04446"/><path d="M134.6001,389.87988l-.41016.57007L73.05005,477.2,52.28,372.5a396.80114,396.80114,0,0,0,81.63989,17.30005C134.1499,389.83984,134.37012,389.85986,134.6001,389.87988Z" style="fill:#f0e168"/><path d="M176,400a414.25169,414.25169,0,0,1-42.165-2.15625c-.32031-.0293-.62891-.0625-.94336-.10742a405.78586,405.78586,0,0,1-83.084-17.62793C40.11523,376.959,30.4082,373.39258,20.958,369.50781L27.042,354.709c9.07715,3.73145,18.40039,7.15723,27.71,10.18262a389.72037,389.72037,0,0,0,79.99512,16.95117c.14355.01465.28711.03321.42969.05664l.13086.01172c.03613.00293.07519.00684.11035.01075A398.113,398.113,0,0,0,176,384a394.386,394.386,0,0,0,41.24023-2.15625c.13477-.01367.27051-.02441.40528-.03223.13281-.00683.26562-.02539.39844-.04394.08789-.0127.17675-.02344.26562-.0332a389.47577,389.47577,0,0,0,80.582-17.39161c.07813-.02539.15723-.0498.23633-.07324.24316-.07226.47949-.15234.72266-.23828.041-.01465.083-.02832.124-.042a389.46767,389.46767,0,0,0,75.00586-34.17676,392.3728,392.3728,0,0,0,106.7832-92.49414l12.47266,10.02148a408.31705,408.31705,0,0,1-111.12012,96.25,405.455,405.455,0,0,1-78.0293,35.56055c-.43261.15137-.85546.291-1.28613.4209a405.43807,405.43807,0,0,1-83.66894,18.05957c-.48731.06641-.94434.11328-1.38477.14258A410.42559,410.42559,0,0,1,176,400Z" style="fill:#ba8b5d"/><path d="M434.08008,261.80005,392,360l-42.08008-98.19995A400.76406,400.76406,0,0,0,392,264,400.76406,400.76406,0,0,0,434.08008,261.80005Z" style="fill:#7ab355"/><path d="M343.81982,261.12012l-62.6499,86.53979L261.6499,242.27A395.98138,395.98138,0,0,0,343.81982,261.12012Z" style="fill:#529ddf"/><path d="M256.21,240.3501,175.77,311.26l4.16992-108.04A397.24355,397.24355,0,0,0,256.21,240.3501Z" style="fill:#e04446"/><path d="M517.7998,243.81006l-20.75,105.11987-61.62988-87.27A396.58517,396.58517,0,0,0,517.7998,243.81006Z" style="fill:#f0e168"/><path d="M392,272a410.46978,410.46978,0,0,1-42.91992-2.24414c-1.93457-.18945-3.99414-.41895-6.23828-.69531A404.95612,404.95612,0,0,1,259.041,249.832c-1.84278-.62695-3.708-1.28711-5.57325-1.9668a405.974,405.974,0,0,1-77.77734-37.86718,409.48952,409.48952,0,0,1-92.46875-79.30664A407.74533,407.74533,0,0,1,17.95215,27.20312l14.66211-6.40624A391.44654,391.44654,0,0,0,184.18652,196.44043a389.94527,389.94527,0,0,0,74.73633,36.38281c1.7832.65137,3.53906,1.27246,5.30371,1.87207a389.00572,389.00572,0,0,0,80.544,18.48145c2.13965.26367,4.07031.47851,5.93066.66113a397.09,397.09,0,0,0,82.53906.00586c.10059-.01074.20215-.01953.30274-.02637.26953-.01758.53906-.04883.80273-.085.07227-.00976.14551-.01855.21875-.02637a390.69588,390.69588,0,0,0,51.52149-9.07031l3.82812,15.53516a406.67151,406.67151,0,0,1-53.53808,9.43262c-.52344.06933-1.05762.127-1.5918.166A410.33249,410.33249,0,0,1,392,272Z" style="fill:#9f764a"/><path d="M226.08008,125.80005,184,224l-42.08008-98.19995A400.76406,400.76406,0,0,0,184,128,400.76406,400.76406,0,0,0,226.08008,125.80005Z" style="fill:#7ab355"/><path d="M309.12012,108.04,288.73,212.82007,226.85986,125.72A397.34714,397.34714,0,0,0,309.12012,108.04Z" style="fill:#529ddf"/><path d="M388.74023,179.77l-78.80029-72.01A397.00408,397.00408,0,0,0,386.54,73Z" style="fill:#f0e168"/><path d="M479.52,126.3501l-92.26025-53.77a400.55865,400.55865,0,0,0,67.54-50.2002Z" style="fill:#7ab355"/><path d="M136.15991,125.15991,73.21,211.47l-19.06982-105.03A396.4516,396.4516,0,0,0,136.15991,125.15991Z" style="fill:#e04446"/><path d="M184,136a410.46978,410.46978,0,0,1-42.91992-2.24414c-2.12305-.21-4.07617-.42676-5.918-.6582A405.2229,405.2229,0,0,1,51.542,114.00586C41.19238,110.457,30.84766,106.43066,20.79688,102.04l6.40624-14.66211c9.65333,4.21777,19.58887,8.085,29.53223,11.49414a389.37041,389.37041,0,0,0,80.36914,18.34375c1.75293.2207,3.56739.42188,5.60059.62305a397.18746,397.18746,0,0,0,82.53515.00488c.13672-.01465.27442-.02539.41114-.03223.11621-.01757.251-.03515.36328-.04687a390.3286,390.3286,0,0,0,80.60547-17.32422l.09765-.03223c.14942-.04882.30176-.09765.44825-.15234.08593-.03125.17187-.06152.25878-.09082a389.735,389.735,0,0,0,75.05665-34.05957c.084-.04883.16894-.09668.2539-.14258l.50391-.29883A393.07959,393.07959,0,0,0,447.64551,18.083L458.415,29.917a409.271,409.271,0,0,1-67.085,49.54981l-.2168.1289c-.2041.12207-.4082.24219-.6123.35547a405.71548,405.71548,0,0,1-77.93555,35.36621c-.27051.09766-.5459.18946-.81738.2793l-.10645.03516a406.419,406.419,0,0,1-83.77539,18.02636c-.40039.05664-.78223.09571-1.15527.11914A410.55276,410.55276,0,0,1,184,136Zm41.7793-18.19434h0Z" style="fill:#ba8b5d"/><path d="M65.33887,212.89844a7.9999,7.9999,0,0,0,14.335,3.28515l58.12378-79.69213,38.84887,90.65991a8.00056,8.00056,0,0,0,14.707,0L228.1311,141.3252,282.208,217.45312a8.00033,8.00033,0,0,0,14.375-3.10449l17.83642-91.65844,68.92432,62.98461a7.99935,7.99935,0,0,0,13.39453-6.07031l-1.92383-93.36206,80.67676,47.01929a8.00045,8.00045,0,0,0,11.81152-8.7627L462.58691,20.53418a8.00076,8.00076,0,0,0-13.20117-4.03613A390.84664,390.84664,0,0,1,184,120,389.24673,389.24673,0,0,1,27.20312,87.38574l-6.40624,14.66211q13.01439,5.68616,26.30761,10.41968Zm12.40722-21.22461L64.408,118.20947a402.69107,402.69107,0,0,0,57.36621,13.09864Zm206.69727,1.29687L241.13306,131.999a407.0385,407.0385,0,0,0,57.58667-12.39282Zm40.75537-82.10376a405.78818,405.78818,0,0,0,53.61914-24.31909l1.53955,74.72363ZM450.11914,37.26758,467.419,110.03809,402.8418,72.40234A409.06285,409.06285,0,0,0,450.11914,37.26758Zm-236.65649,97.665L184,203.68848l-29.45312-68.73365Q169.1836,135.99085,184,136,198.80371,136,213.46265,134.93262Z"/><path d="M372.09766,384.17676,373,424.98535l-55.25684-50.34082a401.81627,401.81627,0,0,0,45.94239-20.2832l-7.3711-14.20117A392.993,392.993,0,0,1,176,384,389.77442,389.77442,0,0,1,27.042,354.709l-6.084,14.79883q12.07543,4.96473,24.38281,9.12207l19.8623,100.127a7.9995,7.9995,0,0,0,14.38575,3.05175L132.478,406.76514l36.16845,84.38623a8.00056,8.00056,0,0,0,14.707,0l36.90332-86.11963,54.31445,76.34619a7.99987,7.99987,0,0,0,14.37207-3.11523l17.82422-91.97217,69.25488,63.09326A8.00035,8.00035,0,0,0,389.4082,443.293l-1.31445-59.46973ZM77.26465,457.333,62.73389,384.084a403.65555,403.65555,0,0,0,57.58471,12.16065ZM175.999,467.69043,146.53955,398.957Q161.18506,399.99634,176,400q14.75757,0,29.4668-1.0769Zm100.78809-10.79785-43.37524-60.9707a410.99122,410.99122,0,0,0,57.60327-12.44166Z"/><path d="M494.4541,331.38477l-44.8042-63.44361a405.985,405.985,0,0,0,40.26416-7.76831l-3.82812-15.53515A393.73571,393.73571,0,0,1,392,256a388.17086,388.17086,0,0,1-172.47559-39.88281l-7.04882,14.36328q14.06176,6.9016,28.47558,12.65576L184.4834,292.91309l1.72265-44.6045-15.98828-.61718-2.44238,63.25976a7.99981,7.99981,0,0,0,13.28418,6.30957l74.22534-65.43139,18.0188,97.28784a8.00034,8.00034,0,0,0,14.34668,3.23437l58.02344-80.14868,38.97265,90.94849a8.00056,8.00056,0,0,0,14.707,0l36.98779-86.31714,45.04248,63.781Zm-208.81738-3.53711L271.98,254.11328a400.97262,400.97262,0,0,0,57.50342,13.168ZM392,339.68848l-29.44678-68.71924Q377.17456,271.99866,392,272q14.76489,0,29.46-1.06055Z"/></g></svg>
