<?xml version="1.0" encoding="iso-8859-1"?>
<!-- Generator: Adobe Illustrator 19.0.0, SVG Export Plug-In . SVG Version: 6.00 Build 0)  -->
<svg version="1.1" id="Capa_1" xmlns="http://www.w3.org/2000/svg" xmlns:xlink="http://www.w3.org/1999/xlink" x="0px" y="0px"
	 viewBox="0 0 480.028 480.028" style="enable-background:new 0 0 480.028 480.028;" xml:space="preserve">
<path style="fill:#A2A9B0;" d="M255.693,418.964c10.901-19.019,11.547-42.236,1.72-61.832l-10.184-20.456l-5.496-9.648l-13,8.904
	l4.176,7.904l10.232,20.448c7.424,14.815,6.937,32.363-1.296,46.744c-11.75,20.586-11.48,45.909,0.704,66.24l1.656,2.76h18.656
	l-6.592-10.992C247.048,453.675,246.828,434.534,255.693,418.964L255.693,418.964z"/>
<g>
	<path style="fill:#FC88A1;" d="M240.029,311.82L83.365,155.172c-33.65-33.664-33.638-88.233,0.026-121.883
		c2.027-2.027,4.155-3.951,6.374-5.765c36.839-30.134,91.131-24.699,121.265,12.14c0.285,0.348,0.567,0.699,0.847,1.052
		l28.152,35.544l28.152-35.544C297.724,3.401,351.922-2.9,389.237,26.642c0.368,0.291,0.733,0.585,1.096,0.882
		c36.848,30.129,42.295,84.426,12.165,121.274c-1.815,2.219-3.739,4.347-5.765,6.374L240.029,311.82z"/>
	<path style="fill:#FC88A1;" d="M240.029,311.82l-24,28.44h48L240.029,311.82z"/>
</g>
<g>
	<path style="fill:#FCBDCB;" d="M125.205,46.196l5.648,14.976c4.21-1.593,8.675-2.406,13.176-2.4v-16
		C137.6,42.769,131.222,43.929,125.205,46.196L125.205,46.196z"/>
	<path style="fill:#FCBDCB;" d="M117.685,69.684l-11.312-11.312c-20.769,20.808-20.769,54.504,0,75.312l16,16l11.312-11.312l-16-16
		C103.167,107.81,103.167,84.246,117.685,69.684z"/>
</g>
<path style="fill:#FC7B97;" d="M390.333,27.524c-12.139-9.933-26.772-16.342-42.304-18.528
	c-36.112,133.992-116.44,201.312-176.8,234.016l68.8,68.8l156.664-156.64c33.66-33.654,33.664-88.223,0.01-121.883
	C394.677,31.263,392.551,29.339,390.333,27.524L390.333,27.524z"/>
<path d="M395.405,21.332c-40.248-32.951-99.588-27.036-132.539,13.212c-0.322,0.393-0.641,0.789-0.957,1.188l-21.88,27.64
	l-21.88-27.624C185.87-5.046,126.631-11.949,85.837,20.331S38.14,111.849,70.42,152.643c2.269,2.867,4.703,5.6,7.29,8.185
	l151.464,151.448L209.917,335.1c-2.845,3.38-2.412,8.427,0.968,11.272c1.44,1.212,3.261,1.878,5.144,1.88h19.056l8,16
	c7.424,14.815,6.937,32.363-1.296,46.744c-11.75,20.586-11.48,45.909,0.704,66.24l1.656,2.76h18.656l-6.592-10.992
	c-9.209-15.369-9.414-34.51-0.536-50.072c10.901-19.019,11.547-42.236,1.72-61.832l-4.44-8.88h11.072
	c4.418-0.005,7.996-3.59,7.992-8.008c-0.002-1.882-0.668-3.704-1.88-5.144l-19.256-22.824l151.464-151.416
	c36.785-36.783,36.787-96.422,0.003-133.208C400.143,25.41,397.824,23.312,395.405,21.332L395.405,21.332z M233.245,332.252l6.784-8
	l6.784,8H233.245z M391.029,149.516l-151,150.992l-151-150.992c-30.54-30.525-30.553-80.028-0.028-110.569
	c1.841-1.842,3.772-3.59,5.788-5.239c13.902-11.44,31.348-17.69,49.352-17.68c2.857,0.004,5.712,0.159,8.552,0.464
	c20.863,2.183,39.957,12.712,52.936,29.192l28.144,35.536c2.985,3.464,8.214,3.852,11.678,0.866c0.31-0.267,0.599-0.557,0.866-0.866
	l28.112-35.536c26.836-33.834,76.018-39.507,109.852-12.671s39.507,76.018,12.671,109.852
	C395.106,145.193,393.128,147.414,391.029,149.516z"/>
<path d="M130.853,61.172c4.21-1.593,8.675-2.406,13.176-2.4v-16c-6.43-0.004-12.807,1.157-18.824,3.424L130.853,61.172z"/>
<path d="M117.685,69.684l-11.312-11.312c-20.769,20.808-20.769,54.504,0,75.312l16,16l11.312-11.312l-16-16
	C103.167,107.81,103.167,84.246,117.685,69.684z"/>
<g>
</g>
<g>
</g>
<g>
</g>
<g>
</g>
<g>
</g>
<g>
</g>
<g>
</g>
<g>
</g>
<g>
</g>
<g>
</g>
<g>
</g>
<g>
</g>
<g>
</g>
<g>
</g>
<g>
</g>
</svg>
