<svg id="Capa_1" enable-background="new 0 0 495.993 495.993" height="512" viewBox="0 0 495.993 495.993" width="512" xmlns="http://www.w3.org/2000/svg"><path d="m448.626 98.25h-21.79l-12.406 12.675h-328.814l-14.46-12.675h-23.79c-6.73 0-12.19 5.46-12.19 12.2v308.36c0 6.73 5.46 12.19 12.19 12.19h23.79l12.691-13.544h332.033l10.956 13.544h21.79c6.73 0 12.19-5.46 12.19-12.19v-308.36c0-6.74-5.46-12.2-12.19-12.2z" fill="#fae2c0"/><g><path d="m354.686 0h-269.07l-10.231 7.461v26.358l9.996 9.996.235-.235h269.07l10.025-8.735v-29.043z" fill="#fd8087"/><path d="m429.646.235h-35.32l-11.714 9.819v25.408l11.714 8.352h35.32c6.01 0 11.46-2.44 15.41-6.38 3.94-3.95 6.38-9.39 6.38-15.41 0-12.039-9.76-21.789-21.79-21.789z" fill="#f3eae6"/><path d="m225.881 495.755-22.163-12.869-22.163 12.869c-1.16.673-2.614-.163-2.614-1.505v-87.247h49.554v87.247c0 1.341-1.454 2.178-2.614 1.505z" fill="#fd8087"/><g><path d="m93.468 418.81v-308.36c0-6.74 5.46-12.2 12.19-12.2h-58.292c-6.73 0-12.19 5.46-12.19 12.2v308.36c0 6.73 5.46 12.19 12.19 12.19h58.292c-6.73 0-12.19-5.46-12.19-12.19z" fill="#fddeb0"/><g id="XMLID_520_"><g><path d="m248.996 98.25v332.75h-177.84v-331.2-1.55z" fill="#f3eae6"/><path d="m225.495 98.25h23.501v332.75h-23.501z" fill="#e1d3ce"/><path d="m426.836 99.8v331.2h-177.84v-332.75h177.84z" fill="#f9f3f1"/><path d="m248.996 98.25h21.647v332.75h-21.647z" fill="#f3eae6"/></g></g><g><path d="m210.531 167.089h-105.301c-4.143 0-7.5-3.357-7.5-7.5s3.357-7.5 7.5-7.5h105.302c4.143 0 7.5 3.357 7.5 7.5s-3.358 7.5-7.501 7.5z" fill="#e1d3ce"/></g><g><path d="m210.531 211.99h-105.301c-4.143 0-7.5-3.357-7.5-7.5s3.357-7.5 7.5-7.5h105.302c4.143 0 7.5 3.357 7.5 7.5s-3.358 7.5-7.501 7.5z" fill="#e1d3ce"/></g><g><path d="m210.531 256.89h-105.301c-4.143 0-7.5-3.357-7.5-7.5s3.357-7.5 7.5-7.5h105.302c4.143 0 7.5 3.357 7.5 7.5s-3.358 7.5-7.501 7.5z" fill="#e1d3ce"/></g><g><path d="m210.531 301.791h-105.301c-4.143 0-7.5-3.357-7.5-7.5s3.357-7.5 7.5-7.5h105.302c4.143 0 7.5 3.357 7.5 7.5s-3.358 7.5-7.501 7.5z" fill="#e1d3ce"/></g><g><path d="m210.531 346.691h-105.301c-4.143 0-7.5-3.357-7.5-7.5s3.357-7.5 7.5-7.5h105.302c4.143 0 7.5 3.357 7.5 7.5s-3.358 7.5-7.501 7.5z" fill="#e1d3ce"/></g><g><path d="m392.763 167.089h-105.302c-4.143 0-7.5-3.357-7.5-7.5s3.357-7.5 7.5-7.5h105.302c4.143 0 7.5 3.357 7.5 7.5s-3.358 7.5-7.5 7.5z" fill="#f3eae6"/></g><g><path d="m392.763 211.99h-105.302c-4.143 0-7.5-3.357-7.5-7.5s3.357-7.5 7.5-7.5h105.302c4.143 0 7.5 3.357 7.5 7.5s-3.358 7.5-7.5 7.5z" fill="#f3eae6"/></g><g><path d="m392.763 256.89h-105.302c-4.143 0-7.5-3.357-7.5-7.5s3.357-7.5 7.5-7.5h105.302c4.143 0 7.5 3.357 7.5 7.5s-3.358 7.5-7.5 7.5z" fill="#f3eae6"/></g><g><path d="m392.763 301.791h-105.302c-4.143 0-7.5-3.357-7.5-7.5s3.357-7.5 7.5-7.5h105.302c4.143 0 7.5 3.357 7.5 7.5s-3.358 7.5-7.5 7.5z" fill="#f3eae6"/></g><g><path d="m392.763 346.691h-105.302c-4.143 0-7.5-3.357-7.5-7.5s3.357-7.5 7.5-7.5h105.302c4.143 0 7.5 3.357 7.5 7.5s-3.358 7.5-7.5 7.5z" fill="#f3eae6"/></g><g id="XMLID_522_"><g><path d="m354.686 0h39.64v43.58h-39.64z" fill="#fae2c0"/><path d="m85.616 0v43.58h-6.72l-31.83-18.81c-2.27-1.34-2.27-4.63 0-5.97l31.83-18.8z" fill="#f3eae6"/></g></g></g></g></svg>