<svg height="488pt" viewBox="0 -9 488.61256 488" width="488pt" xmlns="http://www.w3.org/2000/svg"><path d="m467.871094 277.121094c.4375-5.644532-2.753906-10.960938-7.941406-13.234375-1.351563-.589844-2.785157-.949219-4.265626-1.070313-7.296874-.59375-13.726562 4.867188-14.332031 12.175782-.050781.597656-5.75 60.429687-59.441406 112.90625-1.554687 1.445312-38.667969 35.59375-88.992187 47.515624l-.296876.074219c-.363281.097657-37.203124 9.363281-83.746093.816407-.15625-.027344-16.320313-3.097657-37.722657-12.460938-18.15625-7.945312-34.449218-17.914062-48.449218-29.644531l-.175782-.144531c-.210937-.171876-21.609374-17.640626-38.480468-44.238282-6.214844-11.089844-22.976563-43.910156-25.847656-62.359375-.050782-.328125-.117188-.660156-.191407-.976562-.015625-.074219-1.367187-5.984375-2.632812-14.398438l.132812.15625c1.332031 1.589844 2.96875 2.8125 4.855469 3.636719 3.460938 1.515625 7.40625 1.492188 10.835938-.0625 1.09375-.5 2.125-1.148438 3.0625-1.9375 5.613281-4.71875 6.339843-13.136719 1.617187-18.765625l-25.136719-29.945313c-.265625-.316406-.546875-.617187-.84375-.910156l-.296875-.28125c-.199219-.179687-.398437-.359375-.609375-.53125l-.390625-.308594c-.1875-.140624-.378906-.277343-.582031-.417968-.148438-.101563-.292969-.199219-.4375-.285156-.171875-.109376-.347656-.210938-.707031-.40625l-.355469-.195313c-.152344-.074219-.679688-.308594-.679688-.308594-.257812-.113281-.519531-.214843-.78125-.308593-.246093-.089844-.492187-.175782-.734374-.25l-.457032-.117188c-.242187-.066406-.488281-.125-.746094-.175781l-.433593-.074219c-.253907-.042969-.503907-.074219-.757813-.101562l-.464844-.042969c-.246093-.015625-.492187-.023438-.730468-.027344h-.46875c-.246094.003906-.492188.019531-.851563.046875l-.363281.03125c-.28125.03125-.558594.078125-.839844.128906-.273437.046875-.539062.109375-.941406.207032l-.453125.117187c-.175781.050781-.351563.113281-.59375.195313-.179687.0625-.359375.125-.542969.195312-.183594.074219-.367187.152344-.542968.230469-.199219.089843-.394532.183593-.613282.296875-.152344.074218-.300781.152344-.453125.234375-.277343.15625-.542969.320312-.800781.488281l-.210938.136719c-.351562.238281-.6875.492187-.902343.683593l-.296875.25c-.246094.210938-.488282.4375-.730469.679688l-.300781.316406c-.171875.183594-.335938.371094-.496094.566406l-.328125.402344-23.390625 31.648438c-4.355469 5.902344-3.101562 14.257812 2.796875 18.628906.808594.601562 1.679687 1.105469 2.59375 1.507812 5.722656 2.503907 12.308594.742188 16.019531-4.285156l.511719-.6875c1.382813 10.253906 3.078125 17.972656 3.429687 19.507813 4.414063 27.25 28.03125 69.390625 29.027344 71.160156.109375.195313.226563.390625.351563.589844 18.886719 29.886719 41.855469 48.953125 44.386719 51.003906 15.957031 13.355469 34.410156 24.660156 54.835937 33.601563.003906.003906.003906.003906.007813.003906 24.148437 10.570312 42.742187 14.054687 43.523437 14.199218 51.246094 9.410157 90.792969-.089843 95.09375-1.195312 12.714844-3.023438 25.628906-7.492188 38.386719-13.285156 37.226562-16.914063 61.640625-39.828125 62.625-40.761719l.1875-.175781c61.371094-59.917969 67.277344-127.132813 67.5-129.96875zm0 0" fill="#f9a7a7"/><path d="m479.265625 195.945312c-.820313-.609374-1.707031-1.128906-2.636719-1.535156-5.699218-2.492187-12.273437-.746094-15.988281 4.246094l-.511719.6875c-1.347656-10.292969-3.011718-17.996094-3.359375-19.527344-4.296875-27.203125-27.761719-69.492187-28.765625-71.285156-.109375-.195312-.222656-.390625-.339844-.574219-18.78125-29.976562-41.667968-49.113281-44.1875-51.171875-16.140624-13.613281-34.839843-25.121094-55.574218-34.195312-23.261719-10.179688-40.699219-13.625-42.609375-13.984375-51.25-9.613281-90.800781-.257813-95.101563.832031-58.035156 13.550781-99.515625 52.054688-101.402344 53.828125-61.644531 59.726563-67.769531 126.878906-67.996093 129.707031-.464844 5.675782 2.726562 11.023438 7.941406 13.304688 1.34375.585937 2.769531.945312 4.238281 1.070312 3.539063.292969 6.984375-.8125 9.695313-3.109375 2.710937-2.300781 4.367187-5.523437 4.65625-9.070312.050781-.59375 5.644531-60.046875 59.875-112.636719 1.554687-1.441406 38.75-35.433594 89.175781-47.175781l.3125-.078125c.363281-.09375 36.949219-9.265625 83.722656-.492188.15625.03125 15.953125 3.097656 36.902344 12.265625 18.433594 8.070313 34.953125 18.214844 49.101562 30.160157l.183594.152343c.214844.175781 21.5625 17.753907 38.316406 44.390625 6.171876 11.101563 22.804688 43.964844 25.609376 62.449219.046874.328125.113281.667969.1875.988281.015624.066406 1.117187 4.933594 2.246093 12.183594-1.324219-1.597656-3.015625-2.871094-4.90625-3.699219-4.507812-1.972656-9.707031-1.3125-13.566406 1.726563-5.765625 4.539062-6.761719 12.929687-2.226563 18.703125l25.363282 32.261719c.136718.171874.28125.335937.421875.492187l.328125.363281c.136718.140625.824218.789063.824218.789063s.707032.582031.871094.703125c0 0 .71875.496094.910156.617187l.300782.175781c.222656.128907.445312.253907.6875.378907l.769531.355469.484375.195312c.3125.117188.625.226562.953125.324219l.386719.105469c.273437.074218.550781.136718.945312.214843l.304688.058594c.34375.054687.683594.097656.976562.121094l.246094.027343c.402344.03125.808594.039063 1.230469.027344l.328125-.019531c.304687-.011719.609375-.035156.933594-.074219l.335937-.042968c.3125-.046876.625-.101563.933594-.167969l.28125-.0625c.359375-.085938.714843-.1875 1.195312-.34375.40625-.136719.808594-.292969 1.195313-.46875.492187-.222657.972656-.480469 1.4375-.765625.148437-.089844.289062-.191406.429687-.292969l.269531-.183594c.203126-.136719.402344-.273437.625-.449219.089844-.070312.175782-.148437.292969-.253906.308594-.257812.601563-.523437.871094-.792968l.332031-.351563c.265625-.285156.515625-.582031.714844-.839844l.136719-.160156 23.421875-31.460937c4.375-5.882813 3.152344-14.246094-2.730469-18.640626zm0 0" fill="#f9a7a7"/><path d="m296.929688 262.167969v-41.902344c0-24.078125 5.734374-47.808594 16.726562-69.230469 3.386719-6.59375 5.152344-13.902344 5.152344-21.3125 0-15.351562-7.546875-29.71875-20.179688-38.433594-12.042968-8.300781-26.320312-12.75-40.945312-12.75h-13.875v.023438h-12.375c-14.625 0-28.902344 4.445312-40.941406 12.75-12.640626 8.710938-20.183594 23.082031-20.183594 38.429688 0 7.414062 1.765625 14.71875 5.148437 21.3125l.125.242187c10.992188 21.421875 16.726563 45.15625 16.726563 69.234375v41.371094c0 24.078125-5.734375 47.808594-16.726563 69.230468l-.125.242188c-3.382812 6.597656-5.148437 13.902344-5.148437 21.316406 0 15.347656 7.542968 29.71875 20.179687 38.429688 12.039063 8.304687 26.316407 12.75 40.941407 12.75h12.375v.023437h13.875c14.625 0 28.90625-4.445312 40.945312-12.75 12.632812-8.714843 20.179688-23.082031 20.179688-38.433593 0-7.410157-1.765626-14.714844-5.152344-21.308594-10.988282-21.421875-16.722656-45.15625-16.722656-69.234375zm0 0" fill="#e0ebfc"/><path d="m231.429688 379.871094c-9.800782 0-19.246094-2.941406-27.316407-8.503906-6.140625-4.238282-9.804687-11.214844-9.804687-18.675782 0-3.582031.863281-7.164062 2.5-10.355468l.152344-.296876c12.644531-24.644531 19.347656-52.371093 19.347656-80.132812v-41.375c0-27.761719-6.703125-55.492188-19.375-80.1875l-.097656-.1875c-1.664063-3.246094-2.527344-6.828125-2.527344-10.414062 0-7.457032 3.664062-14.441407 9.804687-18.675782 8.066407-5.5625 17.515625-8.503906 27.316407-8.503906h27.703124c9.28125.277344 18.195313 3.195312 25.867188 8.484375 6.140625 4.234375 9.808594 11.214844 9.808594 18.671875 0 3.585938-.867188 7.167969-2.5 10.355469-12.675782 24.703125-19.375 52.429687-19.375 80.191406v41.902344c0 27.761719 6.699218 55.492187 19.375 80.1875 1.632812 3.191406 2.5 6.773437 2.5 10.355469 0 7.460937-3.664063 14.441406-9.804688 18.675781-7.824218 5.394531-16.9375 8.324219-26.417968 8.496093zm0 0" fill="#e0ebfc"/><path d="m249.511719 470.621094c-13.59375 0-29.257813-1.078125-46.160157-4.179688-.800781-.148437-19.875-3.734375-44.402343-14.46875-.015625-.007812-.03125-.011718-.042969-.019531-20.761719-9.089844-39.523438-20.59375-55.761719-34.179687-2.5625-2.078126-25.976562-21.507813-45.203125-51.9375-.171875-.269532-.316406-.519532-.457031-.769532-1.011719-1.796875-24.890625-44.40625-29.46875-72.351562-.226563-1.011719-1.257813-5.664063-2.351563-12.316406-4.585937 2.539062-10.195312 2.902343-15.28125.679687-1.191406-.523437-2.324218-1.179687-3.375-1.960937-7.667968-5.675782-9.296874-16.542969-3.628906-24.214844l23.8125-32.191406c.238282-.289063.457032-.539063.6875-.785157l.328125-.34375c.378907-.386719.699219-.679687 1.023438-.960937l.320312-.269532c.269531-.234374.742188-.597656 1.230469-.929687l.300781-.199219c.292969-.191406.648438-.410156 1.007813-.613281.203125-.113281.40625-.214844.609375-.320313.277343-.136718.527343-.257812.78125-.375.234375-.101562.472656-.207031.707031-.296874.242188-.097657.472656-.175782.699219-.253907.332031-.113281.5625-.191406.789062-.257812l.5625-.148438c.5625-.136719.898438-.210937 1.238281-.269531.375-.066406.730469-.125 1.09375-.167969l.488282-.039062c.484375-.039063.789062-.054688 1.101562-.0625h.554688c.34375.003906.652344.015625.957031.035156l.570313.050781c.40625.039063.742187.085938 1.074218.144532l.449219.074218c.441406.082032.761719.164063 1.082031.246094l.460938.121094c.445312.128906.769531.242187 1.09375.359375.320312.117187.664062.25 1 .398437.027344.011719.703125.3125.898437.410156l.445313.238282c.5.277344.71875.40625.929687.539062.175781.109375.382813.246094.585938.386719.25.167969.5.34375.738281.527344l.4375.34375c.34375.28125.601562.507812.855469.742187l.324219.304688c.449218.441406.816406.832031 1.160156 1.246094l25.144531 29.949218c6.140625 7.316406 5.195313 18.261719-2.109375 24.402344-1.207031 1.015625-2.546875 1.863281-3.984375 2.511719-3.785156 1.722656-8.0625 2.003906-12.023437.839843.621093 3.28125 1.074218 5.25 1.082031 5.285157.09375.414062.179687.847656.246093 1.273437 2.769532 17.804688 19.171876 49.914063 25.332032 60.917969 16.445312 25.890625 37.347656 43.007813 37.558594 43.175781l.203124.167969c13.730469 11.5 29.707032 21.273437 47.511719 29.066406 20.792969 9.101563 36.703125 12.167969 36.859375 12.199219 45.382813 8.332031 81.648438-.671875 82.011719-.761719l.328125-.082031c49.316406-11.683594 85.707031-45.144531 87.230469-46.566406 52.226562-51.039063 58.128906-109.742188 58.183593-110.328125.785157-9.476563 9.167969-16.589844 18.640626-15.808594 1.925781.160156 3.789062.625 5.542968 1.394531 6.746094 2.953125 10.890625 9.867188 10.324219 17.207032v.003906c-.226563 2.894531-6.261719 71.5625-68.695313 132.519531l-.226562.214844c-1.039062.984375-25.875 24.300781-63.722656 41.5-12.996094 5.902343-26.15625 10.457031-39.117188 13.535156-2.941406.753906-22.289062 5.417969-50.585937 5.417969zm-87.320313-25.960938c23.675782 10.355469 41.847656 13.773438 42.609375 13.914063 50.394531 9.25 89.125-.046875 93.375-1.136719 12.53125-2.976562 25.199219-7.363281 37.726563-13.054688 36.644531-16.644531 60.53125-39.074218 61.53125-40.019531l.183594-.175781c60.246093-58.820312 66.042968-124.574219 66.261718-127.371094.304688-3.953125-1.925781-7.671875-5.554687-9.261718-.941407-.410157-1.945313-.667969-2.988281-.75-5.113282-.40625-9.59375 3.40625-10.019532 8.519531-.054687.628906-5.9375 61.980469-60.632812 115.433593-1.660156 1.546876-39.554688 36.398438-90.867188 48.550782l-.253906.0625c-.335938.085937-37.976562 9.582031-85.429688.871094-.695312-.128907-16.914062-3.242188-38.605468-12.734376-18.503906-8.097656-35.128906-18.269531-49.414063-30.238281l-.148437-.125c-.183594-.144531-21.960938-17.824219-39.320313-45.183593-.039062-.0625-.074219-.125-.109375-.1875-6.316406-11.265626-23.351562-44.667969-26.3125-63.699219-.039062-.238281-.085937-.472657-.136718-.695313-.007813-.046875-1.390626-6.039062-2.6875-14.703125-.265626-1.769531.675781-3.503906 2.308593-4.238281 1.628907-.738281 3.554688-.300781 4.707031 1.070312l.128907.15625c.9375 1.113282 2.078125 1.972657 3.398437 2.550782 2.421875 1.058594 5.183594 1.042968 7.578125-.042969.769531-.351563 1.488281-.804687 2.136719-1.351563 3.933594-3.308593 4.4375-9.199218 1.132812-13.136718l-25.140624-29.945313c-.179688-.21875-.378907-.425781-.582032-.628906l-.234375-.21875c-.117187-.109375-.261719-.234375-.410156-.359375l-.324219-.25c-.082031-.066406-.214844-.160156-.359375-.253906l-.289062-.191406c-.148438-.09375-.28125-.164063-.550781-.316407l-.707032-.335937c-.148437-.066406-.328125-.136719-.507812-.199219-.195313-.074219-.363282-.132813-.53125-.183594l-.328125-.085937c-.160157-.039063-.328125-.082032-.507813-.117188l-.332031-.054687c-.160156-.027344-.328125-.050781-.5-.070313l-.394531-.03125c-.078125-.003906-.257813-.011718-.4375-.015625h-.425782c-.09375.003907-.273437.015625-.539062.035157l-.335938.03125c-.078124.007812-.277343.042968-.476562.082031-.191406.03125-.390625.078125-.691406.152343l-.394532.105469c-.007812.003907-.125.042969-.28125.097657l-.777343.304687c-.136719.0625-.277344.132813-.4375.210937l-.300781.15625c-.183594.101563-.371094.21875-.542969.332032l-.261719.167968c-.117188.082032-.316406.230469-.445312.339844l-.332032.28125c-.144531.125-.3125.28125-.476562.445313l-.234375.25c-.09375.097656-.203125.226562-.3125.355469l-.300781.375-23.277344 31.511718c-3.050782 4.128906-2.171875 9.976563 1.957031 13.039063.570313.421875 1.179687.773437 1.820313 1.054687 3.996093 1.75 8.601562.515625 11.199218-2.996094l.507813-.6875c.964843-1.3125 2.628906-1.90625 4.210937-1.5 1.578125.402344 2.75 1.726563 2.96875 3.339844 1.421875 10.539063 3.171875 18.300782 3.367188 19.152344.015625.085938.035156.167969.046875.253906 4.300781 26.550782 27.578125 68.082032 28.566406 69.835938.085937.148437.167969.285156.257813.429687 18.535156 29.335938 41.011718 47.992188 43.515624 50.023438 15.710938 13.148437 33.835938 24.253906 53.917969 33.042969.019531 0 .035157.007812.046875.011718zm305.679688-167.539062h.019531zm0 0" fill="#3762cc"/><path d="m447.90625 255.316406c-.421875 0-.792969-.011718-1.164062-.039062l-.394532-.039063c-.292968-.027343-.75-.078125-1.203125-.15625l-.390625-.074219c-.527344-.101562-.871094-.183593-1.214844-.273437l-.460937-.128906c-.480469-.140625-.882813-.28125-1.285156-.433594l-.554688-.222656c-.066406-.023438-.132812-.050781-.195312-.082031l-.769531-.355469c-.441407-.222657-.726563-.382813-1.011719-.550781l-.304688-.175782c-.328125-.199218-1.171875-.78125-1.171875-.78125-.300781-.222656-1.132812-.902344-1.132812-.902344-.078125-.0625-.132813-.109374-.203125-.179687 0 0-.816407-.773437-.980469-.941406l-.390625-.429688c-.203125-.226562-.386719-.4375-.5625-.652343l-25.40625-32.324219c-5.898437-7.503907-4.601563-18.414063 2.894531-24.316407 4.40625-3.46875 10.15625-4.554687 15.457032-3.039062-.390626-1.96875-.648438-3.109375-.652344-3.128906-.097656-.433594-.183594-.882813-.246094-1.316406-2.707031-17.820313-18.980469-49.96875-25.09375-60.984376-16.292969-25.867187-37.199219-43.160156-37.40625-43.332031l-.203125-.167969c-13.882813-11.71875-30.074219-21.664062-48.152344-29.574218-20.351562-8.90625-35.902343-11.972656-36.058593-12.003906-45.589844-8.546876-81.613282.347656-81.972657.4375l-.328125.082031c-49.507812 11.53125-85.910156 44.824219-87.4375 46.234375-52.765625 51.175781-58.554687 109.464844-58.601562 110.050781-.378906 4.59375-2.527344 8.78125-6.054688 11.773437-3.527344 2.988282-8.003906 4.417969-12.609375 4.042969-1.914062-.160156-3.769531-.625-5.515625-1.390625-6.777344-2.96875-10.921875-9.917968-10.324218-17.292968.238281-2.890626 6.492187-71.496094 69.199218-132.253907 1.816406-1.707031 44.15625-41.050781 103.28125-54.855469 4.347656-1.105468 44.640625-10.640624 96.746094-.867187 1.957031.367187 19.804688 3.894531 43.476562 14.253906 21.085938 9.226563 40.113282 20.9375 56.550782 34.796875 2.546875 2.089844 25.878906 21.597656 44.996094 52.109375.144531.230469.289062.472657.429687.722657 1.023437 1.835937 24.757813 44.625 29.214844 72.507812.226562 1.015625 1.238281 5.664062 2.308593 12.332031 4.574219-2.511719 10.164063-2.863281 15.21875-.648437 1.207032.527344 2.359376 1.199218 3.425782 1.992187 0 0 .003906 0 .003906.003907 7.648438 5.707031 9.234375 16.582031 3.535156 24.230468l-23.421875 31.464844c-.054687.074219-.113281.148438-.171875.21875l-.078125.085938c-.25.316406-.550781.675781-.871093 1.019531l-.367188.386719c-.40625.417968-.796875.769531-1.203125 1.109374-.09375.085938-.242187.210938-.394531.332032-.28125.230468-.578125.433594-.875.632812l-.230469.15625c-.136719.105469-.375.269532-.621094.414063-.578125.359375-1.207031.691406-1.847656.984375-.515625.234375-1.039063.4375-1.566406.617187-.652344.210938-1.109375.339844-1.566407.449219l-.324218.070312c-.421875.09375-.828125.164063-1.230469.222657l-.378906.050781c-.511719.058594-.902344.085938-1.300781.105469l-.277344.011719c-.195313.011718-.382813.011718-.558594.011718zm-3.597656-8.75.390625.152344c.148437.058594.371093.136719.609375.207031l.328125.09375c.132812.03125.34375.082031.640625.140625l.269531.046875c.136719.023438.367187.050781.5625.066407l.339844.039062c.136719.007812.421875.011719.71875.003906l.199219-.011718c.265624-.011719.476562-.03125.707031-.054688l.25-.035156c.175781-.023438.394531-.0625.613281-.109375l.261719-.058594c.214843-.050781.472656-.125.820312-.242187.242188-.082032.523438-.1875.789063-.308594.335937-.152344.667968-.332032.992187-.53125.035157-.023438.234375-.164063.265625-.1875l.273438-.183594c.144531-.097656.25-.164062.363281-.257812.035156-.03125.207031-.175782.238281-.207032.210938-.175781.410156-.355468.59375-.539062l.28125-.296875c.144532-.160157.316406-.359375.449219-.53125.042969-.054688.085937-.109375.132813-.160157l.042968-.054687 23.34375-31.351563c3.0625-4.117187 2.207032-9.96875-1.910156-13.042968-.578125-.433594-1.203125-.796875-1.851562-1.078125-3.976563-1.746094-8.574219-.523438-11.171876 2.964843l-.511718.691407c-.972656 1.304687-2.636719 1.890625-4.21875 1.480469-1.574219-.414063-2.746094-1.738282-2.957032-3.351563-1.382812-10.574219-3.101562-18.316406-3.292968-19.164063-.019532-.085937-.035156-.171874-.050782-.257812-4.183593-26.488281-27.324218-68.199219-28.304687-69.960938-.066406-.121093-.152344-.261718-.234375-.394531-18.445312-29.429687-40.839844-48.164062-43.332031-50.203125-15.894531-13.40625-34.265625-24.707031-54.648438-33.625-22.859375-10.003906-39.882812-13.371094-41.746093-13.71875-50.421876-9.457031-89.132813-.296875-93.378907.777344-57.125 13.339844-97.9375 51.261719-99.644531 52.871094-60.53125 58.644531-66.527344 124.347656-66.75 127.117187-.324219 3.972657 1.910156 7.71875 5.554688 9.3125.9375.410157 1.9375.664063 2.96875.75 2.46875.203125 4.878906-.566406 6.777343-2.175781 1.894531-1.605469 3.050781-3.859375 3.253907-6.34375.050781-.613281 5.738281-61.515625 61.074218-115.183594 1.660156-1.535156 39.578125-36.214844 91.058594-48.199218l.242188-.0625c.351562-.089844 37.785156-9.476563 85.433593-.542969.683594.132812 16.546875 3.246093 37.769531 12.535156 18.789063 8.222656 35.636719 18.574219 50.078126 30.765625l.15625.128906c.199218.164063 22.078124 18.199219 39.148437 45.339844.039063.0625.078125.125.109375.1875 6.269531 11.277344 23.175781 44.722656 26.070312 63.792969.035157.25.082032.480469.128907.699219 0 0 1.128906 4.925781 2.296875 12.460937.277344 1.777344-.667969 3.523437-2.3125 4.261719-1.636719.734375-3.574219.289062-4.71875-1.097656-.925782-1.113282-2.113282-2.011719-3.429688-2.585938-3.15625-1.386719-6.789062-.917969-9.488281 1.203125-4.03125 3.175781-4.730469 9.046875-1.554687 13.089844l25.359374 32.265625c.058594.0625.160157.183594.261719.296875l.300781.332031c.058594.054688.351563.328125.507813.476562.164063.136719.476563.390626.621094.503907.03125.015625.472656.324219.644531.433593l.191406.105469c.15625.09375.316406.183594.492188.273438zm0 0" fill="#3762cc"/><path d="m314.574219 184.238281-12.167969-4.324219c-3.617188 13.097657-5.476562 26.667969-5.476562 40.351563v41.902344c0 10.089843 1.023437 20.117187 3 29.941406l14.644531-5.203125c4.785156-1.699219 7.980469-6.230469 7.980469-11.308594v-80.054687c.003906-5.078125-3.195313-9.605469-7.980469-11.304688zm0 0" fill="#e0ebfc"/><path d="m189.21875 292.300781c2.039062-9.96875 3.089844-20.152343 3.089844-30.398437v-41.371094c0-13.839844-1.90625-27.558594-5.601563-40.792969l-12.667969 4.5c-4.785156 1.699219-7.980468 6.226563-7.980468 11.304688v80.058593c0 5.078126 3.195312 9.605469 7.980468 11.308594zm0 0" fill="#e0ebfc"/><g fill="#3762cc"><path d="m257.683594 407.894531h-13.875c-.140625 0-.28125-.007812-.417969-.023437h-11.960937c-15.503907 0-30.445313-4.652344-43.210938-13.453125-13.722656-9.460938-21.910156-25.0625-21.910156-41.726563 0-8.007812 1.933594-16.011718 5.589844-23.140625l.117187-.230469c10.660156-20.773437 16.292969-44.078124 16.292969-67.417968v-41.371094c0-23.335938-5.632813-46.644531-16.289063-67.40625l-.125-.253906c-3.652343-7.113282-5.585937-15.117188-5.585937-23.128906 0-16.664063 8.1875-32.261719 21.90625-41.722657 12.765625-8.804687 27.707031-13.457031 43.214844-13.457031h11.960937c.136719-.015625.277344-.023438.417969-.023438h13.875c15.503906 0 30.449218 4.65625 43.210937 13.457032 13.722657 9.460937 21.910157 25.058594 21.910157 41.722656 0 8.015625-1.933594 16.015625-5.589844 23.140625-10.652344 20.761719-16.285156 44.070313-16.285156 67.40625v41.90625c0 23.332031 5.632812 46.644531 16.285156 67.40625 3.660156 7.125 5.589844 15.125 5.589844 23.136719 0 16.664062-8.1875 32.261718-21.910157 41.722656-12.761719 8.804688-27.707031 13.457031-43.210937 13.457031zm-13.460938-8h13.460938c13.875 0 27.246094-4.164062 38.671875-12.042969 11.554687-7.96875 18.453125-21.101562 18.453125-35.136718 0-6.75-1.628906-13.484375-4.710938-19.484375-11.226562-21.890625-17.167968-46.460938-17.167968-71.058594v-41.90625c0-24.601563 5.9375-49.171875 17.167968-71.058594 3.082032-6 4.710938-12.742187 4.710938-19.488281 0-14.035156-6.898438-27.171875-18.453125-35.136719-11.421875-7.878906-24.792969-12.042969-38.671875-12.042969h-13.460938c-.136718.011719-.273437.023438-.414062.023438h-12.378906c-13.875 0-27.246094 4.160156-38.671876 12.039062-11.550781 7.972657-18.449218 21.105469-18.449218 35.140626 0 6.75 1.625 13.488281 4.707031 19.488281l.128906.253906c11.226563 21.875 17.164063 46.449219 17.164063 71.046875v41.375c0 24.601562-5.9375 49.171875-17.167969 71.054688l-.121094.234374c-3.085937 6.011719-4.710937 12.75-4.710937 19.496094 0 14.039063 6.898437 27.171875 18.449218 35.140625 11.421876 7.875 24.796876 12.039063 38.671876 12.039063h12.375c.144531 0 .28125.007812.417968.023437zm0 0"/><path d="m258.65625 383.882812-27.230469-.011718c-10.613281 0-20.84375-3.183594-29.585937-9.210938-7.21875-4.984375-11.53125-13.195312-11.53125-21.96875 0-4.214844 1.015625-8.429687 2.941406-12.179687l.148438-.292969c12.371093-24.109375 18.910156-51.1875 18.910156-78.316406v-41.371094c0-27.128906-6.546875-54.230469-18.929688-78.363281l-.101562-.199219c-1.941406-3.78125-2.96875-8.011719-2.96875-12.226562 0-8.777344 4.3125-16.988282 11.535156-21.96875 8.742188-6.027344 18.972656-9.210938 29.589844-9.210938h27.703125c10.164062.296875 19.851562 3.476562 28.136719 9.191406 7.226562 4.980469 11.539062 13.191406 11.539062 21.964844 0 4.21875-1.019531 8.433594-2.941406 12.183594-12.386719 24.136718-18.933594 51.234375-18.933594 78.363281v41.90625c0 27.125 6.546875 54.226563 18.933594 78.359375 1.925781 3.753906 2.941406 7.96875 2.941406 12.183594 0 8.773437-4.3125 16.984375-11.535156 21.96875-8.460938 5.828125-18.359375 9.011718-28.621094 9.199218zm.359375-277.324218-27.585937.003906c-8.988282 0-17.648438 2.695312-25.046876 7.796875-5.058593 3.488281-8.078124 9.238281-8.078124 15.382813 0 2.953124.722656 5.917968 2.089843 8.582031l.097657.195312c12.960937 25.253907 19.8125 53.613281 19.8125 82.007813v41.375c0 28.390625-6.839844 56.734375-19.789063 81.957031l-.144531.292969c-1.355469 2.632812-2.066406 5.585937-2.066406 8.539062 0 6.140625 3.019531 11.894532 8.078124 15.382813 7.398438 5.101562 16.054688 7.796875 25.042969 7.796875h.003907l27.152343.011718c8.609375-.160156 16.988281-2.851562 24.148438-7.789062 5.054687-3.488281 8.074219-9.238281 8.074219-15.382812 0-2.953126-.710938-5.902344-2.058594-8.53125-12.960938-25.261719-19.816406-53.621094-19.816406-82.011719v-41.902344c0-28.394531 6.855468-56.753906 19.816406-82.019531 1.347656-2.625 2.0625-5.570313 2.0625-8.527344 0-6.140625-3.019532-11.890625-8.078125-15.378906-7.011719-4.835938-15.214844-7.527344-23.714844-7.78125zm0 0"/><path d="m299.929688 296.109375c-.683594 0-1.363282-.171875-1.96875-.519531-1.007813-.570313-1.722657-1.554688-1.953126-2.6875-2.039062-10.140625-3.078124-20.480469-3.078124-30.734375v-41.902344c0-13.980469 1.890624-27.914063 5.621093-41.417969.292969-1.070312 1.019531-1.96875 2.007813-2.484375.984375-.511719 2.136718-.59375 3.183594-.21875l12.171874 4.320313c6.367188 2.265625 10.644532 8.324218 10.644532 15.078125v80.058593c0 6.753907-4.277344 12.8125-10.644532 15.078126l-14.644531 5.199218c-.433593.15625-.886719.230469-1.339843.230469zm5.246093-110.964844c-2.816406 11.5-4.242187 23.292969-4.242187 35.121094v41.90625c0 8.191406.699218 16.449219 2.078125 24.601563l10.226562-3.632813c3.179688-1.128906 5.320313-4.160156 5.320313-7.539063v-80.058593c0-3.375-2.136719-6.40625-5.320313-7.535157zm0 0"/><path d="m189.21875 296.300781c-.453125 0-.902344-.078125-1.335938-.230469l-15.179687-5.390624c-6.367187-2.261719-10.644531-8.324219-10.644531-15.078126v-80.058593c0-6.753907 4.277344-12.8125 10.644531-15.078125l12.664063-4.5c1.046874-.367188 2.195312-.289063 3.179687.21875.984375.511718 1.710937 1.40625 2.011719 2.476562 3.8125 13.652344 5.75 27.742188 5.75 41.871094v41.371094c0 10.425781-1.066406 20.921875-3.167969 31.199218-.234375 1.136719-.945313 2.113282-1.957031 2.683594-.605469.339844-1.28125.515625-1.964844.515625zm-5.269531-111.339843-8.570313 3.042968c-3.183594 1.128906-5.324218 4.160156-5.324218 7.539063v80.054687c0 3.378906 2.136718 6.410156 5.324218 7.539063l10.773438 3.828125c1.429687-8.292969 2.152344-16.703125 2.152344-25.0625v-41.375c.003906-11.972656-1.460938-23.917969-4.355469-35.566406zm0 0"/></g><path d="m214.632812 228.265625c-3.761718 5.839844-5.996093 12.851563-6.09375 20.402344-.269531 19.902343 14.867188 36.917969 33.84375 37.957031 20.632813 1.132812 37.699219-16.054688 37.699219-37.421875 0-7.753906-2.25-14.957031-6.101562-20.933594l-.007813-.015625-26.683594-42.109375c-1.417968-2.234375-4.546874-2.234375-5.964843 0l-26.679688 42.105469c-.003906.003906-.003906.007812-.003906.007812zm0 0" fill="#f9a7a7"/><path d="m244.320312 290.675781c-.71875 0-1.433593-.019531-2.15625-.058593-21.042968-1.152344-37.921874-20-37.625-42.003907.105469-8.039062 2.425782-15.808593 6.707032-22.46875.011718-.019531.019531-.035156.035156-.050781l26.667969-42.089844c1.402343-2.214844 3.78125-3.535156 6.359375-3.535156 2.582031 0 4.957031 1.320312 6.359375 3.535156l26.683593 42.109375c4.402344 6.832031 6.730469 14.820313 6.730469 23.09375 0 11.671875-4.753906 22.867188-13.042969 30.714844-7.382812 6.980469-16.796874 10.753906-26.71875 10.753906zm-26.347656-60.207031c-3.46875 5.402344-5.347656 11.710938-5.433594 18.25-.242187 17.777344 13.246094 32.988281 30.0625 33.910156 8.492188.460938 16.636719-2.558594 22.933594-8.519531 6.703125-6.34375 10.546875-15.421875 10.546875-24.90625 0-6.730469-1.890625-13.222656-5.460937-18.769531-.027344-.035156-.046875-.074219-.070313-.109375l-26.242187-41.414063-26.285156 41.476563c-.015626.03125-.035157.058593-.050782.082031zm0 0" fill="#3762cc"/></svg>