<svg id="Capa_1" enable-background="new 0 0 512 512" height="512" viewBox="0 0 512 512" width="512" xmlns="http://www.w3.org/2000/svg"><g><g><g clip-rule="evenodd" fill-rule="evenodd"><path d="m30.054 22.5v407c0 8.284 6.716 15 15 15h241.894v-258.456h-165.767v-90h165.767v-88.544h-241.894c-8.284 0-15 6.716-15 15z" fill="#f2c0d7"/><path d="m271.948 444.501h15v-258.456h-14.999v258.456zm0-348.457h15v-88.544h-15z" fill="#f2a7cb"/><path d="m316.947 7.5v437.001h37.499c12.375 0 22.5-10.127 22.5-22.5v-392.001c0-12.373-10.125-22.5-22.5-22.5z" fill="#f2c0d7"/><path d="m316.947 7.5h15v437.001h-15z" fill="#f2a7cb"/><path d="m286.948 444.501h30v-437.001h-30c0 145.667-.001 291.334 0 437.001z" fill="#f7eba4"/><path d="m121.181 96.044h165.767v90h-165.767z" fill="#e4ecf4"/><path d="m30.054 489.5c0 8.284 6.716 15 15 15h301.893c0-20 0-39.999 0-59.999-100.631 0-201.262 0-301.893 0-8.284 0-15-6.716-15-15v59.999z" fill="#e4ecf4"/><path d="m346.947 444.501v59.999h7.5c12.375 0 22.5-10.127 22.5-22.5v-59.999c0 12.373-10.125 22.5-22.5 22.5z" fill="#f2a7cb"/><path d="m421.946 87h60v344.52h-60z" fill="#fdc682"/><path d="m421.946 431.52 30 53.48 30-53.48z" fill="#fedbad"/><path d="m421.946 42v45h60v-45c0-8.284-6.716-15-15-15h-30c-8.284 0-15 6.716-15 15z" fill="#fdc682"/><path d="m30.054 22.5v407c0 8.284 6.716 15 15 15h22.5c-8.284 0-15-6.716-15-15v-407c0-8.284 6.716-15 15-15h-22.5c-8.284 0-15 6.716-15 15z" fill="#f2a7cb"/><path d="m30.054 489.5c0 8.284 6.716 15 15 15h22.5c-8.284 0-15-6.716-15-15v-44.999h-7.5c-8.284 0-15-6.716-15-15z" fill="#c6daec"/><path d="m286.947 444.501h15v-437.001h-15z" fill="#f4e276"/><path d="m421.946 87h22.5v344.52h-22.5z" fill="#fbb057"/><path d="m421.946 42v45h22.5v-45c0-8.284 6.716-15 15-15h-22.5c-8.284 0-15 6.716-15 15z" fill="#fbb057"/><path d="m421.946 431.52 30 53.48 11.25-20.055-18.75-33.425z" fill="#fab684"/><path d="m271.948 96.044h14.999v90h-14.999z" fill="#c6daec"/></g><g><path d="m354.447 106.548h-15v-45h15zm0-60h-15v-15h15z" fill="#fff"/></g><g><path d="m97.553 422.001h-15v-15h15zm-29.999 0h-15v-15h15z" fill="#fff"/></g><g><path d="m444.446 124.5h15v14.999h-15z" fill="#fff"/></g><g><path d="m149.686 467h14.999v15h-14.999z" fill="#fff"/></g></g><g><path d="m354.447 0h-147.196v15h72.197v422h-234.394c-4.136 0-7.5-3.364-7.5-7.5v-354.5h-15v354.5 60c0 12.407 10.093 22.5 22.5 22.5h309.393c16.542 0 30-13.458 30-30v-60-37.499h-15v37.499c0 8.271-6.729 15-15 15h-30v-422h30c8.271 0 15 6.729 15 15v339.501h15v-339.501c0-16.542-13.458-30-30-30zm-316.893 489.5v-7.5h97.131v-15h-97.131v-16.29c2.347.833 4.871 1.29 7.5 1.29h294.393v15h-159.761v15h159.761v15h-294.393c-4.136 0-7.5-3.364-7.5-7.5zm331.893-41.536v34.036c0 8.271-6.729 15-15 15v-45c5.462 0 10.584-1.474 15-4.036zm-60-10.964h-15v-422h15z"/><path d="m37.554 22.5c0-4.136 3.364-7.5 7.5-7.5h147.196v-15h-147.196c-12.406 0-22.5 10.094-22.5 22.5v37.499h15z"/><path d="m466.946 19.5h-30c-12.407 0-22.5 10.094-22.5 22.5v149.998h15v-97.498h15v14.999h15v-14.999h15v277.02h15v-329.52c0-12.406-10.094-22.5-22.5-22.5zm-37.5 60v-37.5c0-4.136 3.364-7.5 7.5-7.5h30c4.136 0 7.5 3.365 7.5 7.5v37.5z"/><path d="m474.446 424.02h-15v-269.52h-15v269.52h-15v-217.02h-15v226.48l37.5 66.851 37.5-66.851v-46.958h-15zm-39.693 15h34.386l-17.193 30.65z"/><path d="m264.448 88.544h-150.767v105h150.767v-15h-135.767v-75h135.767z"/><path d="m211.564 133.544h15v15h-15z"/><path d="m181.564 133.544h15v15h-15z"/></g></g></svg>