<svg id="Capa_1" enable-background="new 0 0 512 512" height="512" viewBox="0 0 512 512" width="512" xmlns="http://www.w3.org/2000/svg"><g><g><g><path d="m340.759 428.219-59.604-269.512h-.001.001l-11.268-8.198h-27.773l-11.268 8.198h.001-.001l-59.604 269.512c-1.244 5.624.749 11.471 5.167 15.166l68.074 56.933c6.667 5.576 16.37 5.576 23.037 0l68.074-56.933c4.416-3.695 6.408-9.542 5.165-15.166z" fill="#e07f84"/><g><path d="m340.759 428.219-59.604-269.512h-.001.001l-11.268-8.198h-27.773l-11.268 8.198h.001-.001l-5.804 26.242 51.368 232.271c1.244 5.624-.748 11.471-5.166 15.166l-53.994 45.157 27.231 22.775c6.667 5.576 16.37 5.576 23.037 0l68.074-56.933c4.419-3.695 6.411-9.543 5.167-15.166z" fill="#db636e"/></g><g><path d="m256.001 78.494-.001-.001-.001.001-44.767 4.012-19.581 28.463 39.194 47.738h50.31l39.194-47.738-19.581-28.463z" fill="#e07f84"/><g fill="#e0dde0"><path d="m83.887 40.748 53.049 79.995c5.056 7.624 15.015 10.262 23.181 6.14l95.883-48.39-126.487-68.799c-3.91-2.127-8.469-2.734-12.799-1.706l-21.953 5.215c-12.216 2.903-17.814 17.08-10.874 27.545z"/><path d="m375.063 120.743 53.049-79.995c6.94-10.465 1.343-24.642-10.874-27.544l-21.953-5.215c-4.331-1.029-8.889-.421-12.799 1.706l-126.486 68.798 95.882 48.39c8.167 4.121 18.126 1.484 23.181-6.14z"/></g></g></g></g><g><path d="m418.969 5.908-21.953-5.215c-6.138-1.457-12.572-.601-18.115 2.414l-122.901 66.849-122.902-66.849c-5.543-3.013-11.977-3.871-18.115-2.414l-21.951 5.215c-17.274 4.102-25.205 24.19-15.392 38.983l13.386 20.186c2.29 3.453 6.946 4.391 10.394 2.106 3.452-2.29 4.395-6.944 2.106-10.394l-13.387-20.186c-4.045-6.101-.819-14.397 6.358-16.102l21.951-5.215c2.537-.602 5.194-.248 7.484.998l113.916 61.961c-6.646 3.354-72.107 36.392-83.107 41.943-4.776 2.407-10.599.864-13.552-3.59l-20.239-30.521c-2.292-3.453-6.945-4.393-10.395-2.104-3.451 2.289-4.394 6.943-2.105 10.394l20.24 30.519c7.115 10.729 21.203 14.548 32.809 8.69l26.17-13.207 33.069 40.276-58.818 265.948c-1.855 8.39 1.086 17.026 7.677 22.539l68.073 56.932c4.732 3.958 10.53 5.936 16.33 5.936 5.798-.001 11.599-1.979 16.329-5.936l68.073-56.932c6.591-5.513 9.532-14.149 7.677-22.538l-7.327-33.133c-.895-4.044-4.9-6.595-8.941-5.704-4.045.894-6.598 4.898-5.704 8.941l7.327 33.134c.643 2.901-.375 5.888-2.654 7.794l-68.073 56.932c-3.886 3.249-9.528 3.251-13.415 0l-68.073-56.932c-2.279-1.906-3.297-4.893-2.654-7.795l58.303-263.628h38.263l43.373 196.117c.888 4.012 4.862 6.603 8.941 5.704 4.045-.894 6.598-4.898 5.704-8.941l-43.886-198.438 33.069-40.276 26.17 13.207c11.645 5.877 25.716 2.007 32.809-8.69h.001l53.047-79.994c9.815-14.794 1.883-34.881-15.39-38.984zm-141.361 145.298h-43.216l-31.003-37.761 52.611-26.552 52.611 26.552zm144.252-114.603-53.047 79.994c-2.955 4.456-8.78 5.999-13.553 3.59-9.523-4.806-81.921-41.344-83.107-41.943l113.915-61.961c2.291-1.246 4.95-1.599 7.484-.998l21.953 5.215c7.138 1.697 10.424 9.969 6.355 16.103z"/></g></g></svg>