<svg id="Capa_1" enable-background="new 0 0 512 512" height="512" viewBox="0 0 512 512" width="512" xmlns="http://www.w3.org/2000/svg"><g><g><g fill="#edc48e"><path d=""/><path d="m345.455 214.244v120.35h59.497c-32.86 0-59.497-53.883-59.497-120.35z"/></g><ellipse cx="404.952" cy="214.244" fill="#f2dbb3" rx="59.497" ry="120.35"/><path d="m345.455 214.244c0-66.467 26.638-120.35 59.497-120.35h-256.627c-32.859 0-59.497 53.883-59.497 120.349v289.757l42.771-26.227 42.771 26.227 42.771-26.227 42.771 26.227 42.771-26.227 42.772 26.227z" fill="#f4e9d3"/><g><path d="m259.912 486-42.771-26.227-42.771 26.227-42.771-26.227-42.771 26.227v18l42.771-26.227 42.771 26.227 42.771-26.227 42.771 26.227 42.771-26.227 42.772 26.227s0-6.681 0-18l-42.771-26.227z" fill="#e5d6be"/></g><path d="m88.828 214.244c0-11.41.785-22.448 2.252-32.908h-24.135c-8.661 0-15.682-7.065-15.682-15.78v-147.556c0-5.523-4.477-10-10-10h-23.263c-5.523 0-10 4.477-10 10v148.01c0 32.508 26.189 58.861 58.494 58.861h22.333v-10.627z" fill="#ffba57"/><ellipse cx="404.952" cy="214.244" fill="#e8834d" rx="22.654" ry="45.824"/><path d="m400.298 214.244c0-18.838 5.621-35.013 13.654-42.057-2.759-2.419-5.801-3.768-9-3.768-12.512 0-22.654 20.516-22.654 45.824s10.142 45.824 22.654 45.824c3.199 0 6.241-1.348 9-3.767-8.033-7.042-13.654-23.218-13.654-42.056z" fill="#e5703c"/><path d="m481.85 181.337h-92.656c-4.251 8.33-6.897 19.99-6.897 32.907 0 3.66.218 7.215.619 10.627h99.452c12.208 0 22.055-10.177 21.617-22.561-.416-11.795-10.405-20.973-22.135-20.973z" fill="#ffba57"/><g fill="#ffac3e"><path d="m66.494 206.871c-32.305 0-58.494-26.353-58.494-58.861v18c0 32.508 26.189 58.861 58.494 58.861h22.333v-10.626c0-2.477.044-4.933.117-7.373h-22.45z"/><path d="m502.043 194.158c-3.415 7.501-10.939 12.712-19.674 12.712h-99.776c-.192 2.401-.295 4.862-.295 7.373 0 3.66.218 7.215.619 10.627h99.452c12.208 0 22.055-10.177 21.617-22.561-.103-2.909-.793-5.658-1.943-8.151z"/></g></g><g><path d="m511.956 201.935c-.551-15.584-13.868-28.263-29.687-28.263h-13.261c-8.922-52.676-34.119-87.611-63.784-87.611h-105.043c-4.151 0-7.514 3.364-7.514 7.514s3.364 7.515 7.514 7.515h73.004c-21.056 21.379-35.086 63.523-35.086 113.068v44.967h-2.505c-4.15 0-7.514 3.364-7.514 7.515 0 4.15 3.364 7.514 7.514 7.514h2.505v216.899l-31.41-19.261c-2.411-1.478-5.446-1.478-7.857 0l-38.925 23.868-38.924-23.868c-2.409-1.477-5.444-1.478-7.857 0l-38.925 23.868-38.925-23.868c-2.411-1.478-5.446-1.478-7.857 0l-31.409 19.261v-91.802c0-4.15-3.364-7.514-7.514-7.514s-7.514 3.364-7.514 7.514v105.224c-.133 5.734 6.626 9.517 11.443 6.406l38.924-23.868 38.925 23.868c2.411 1.478 5.446 1.478 7.857 0l38.925-23.868 38.924 23.868c2.41 1.478 5.446 1.478 7.857 0l38.925-23.868 38.925 23.868c4.819 3.111 11.576-.673 11.443-6.406v-162.22h52.096c17.903 0 34.592-12.723 46.993-35.825 10.594-19.739 17.416-45.837 19.468-74.111h11.104c16.127.345 30.094-14.279 29.165-30.384zm-158.829 125.292v-31.412c5.5 12.844 12.305 23.537 20.063 31.412zm52.097 0c-12.725 0-25.634-11.348-35.415-31.134-10.721-21.686-16.638-50.663-16.677-81.621.004-.105.016-.208.016-.314s-.012-.209-.016-.314c.04-30.958 5.957-59.935 16.677-81.621 9.781-19.786 22.69-31.133 35.415-31.133 20.949 0 40.721 30.041 48.528 72.582h-28.393c-5.388-8.381-12.418-12.942-20.135-12.942-17.223 0-30.212 22.969-30.212 53.428s12.989 53.428 30.212 53.428c13.388 0 24.415-13.913 28.523-35.266h22.875c-4.148 53.007-26.463 94.907-51.398 94.907zm-13.181-94.907h26.334c-3.148 13.25-9.199 20.237-13.153 20.237-4.387 0-10.178-7.518-13.181-20.237zm100.886-19.348c-2.689 2.785-6.29 4.319-10.14 4.319h-92.687c-.036-1.028-.061-2.068-.061-3.133 0-10.312 1.741-18.98 4.218-25.457h88.011c7.82 0 14.4 6.175 14.668 13.764.138 3.954-1.284 7.684-4.009 10.507z"/><path d="m80.982 369.194c0 4.15 3.364 7.514 7.514 7.514 4.151 0 7.514-3.364 7.514-7.514v-95.039h2.505c4.15 0 7.514-3.364 7.514-7.514s-3.364-7.515-7.514-7.515h-2.505v-44.967c0-31.076 5.924-60.174 16.681-81.934 9.781-19.786 22.69-31.134 35.415-31.134h122.016c4.15 0 7.514-3.364 7.514-7.515s-3.364-7.514-7.514-7.514h-122.015c-30.193 0-55.135 36.21-63.824 87.611h-17.712c-4.52 0-8.197-3.722-8.197-8.296v-71.801c0-4.15-3.364-7.514-7.514-7.514s-7.514 3.364-7.514 7.514v71.801c0 12.861 10.419 23.325 23.226 23.325h15.686c-.835 8.207-1.275 16.715-1.275 25.457v3.133h-14.863c-28.172 0-51.091-23.085-51.091-51.46v-148.298c0-1.381 1.123-2.505 2.505-2.505h23.306c1.382 0 2.505 1.124 2.505 2.505v45.984c0 4.15 3.364 7.515 7.514 7.515s7.514-3.364 7.514-7.515v-45.984c.001-9.668-7.865-17.534-17.533-17.534h-23.307c-9.667 0-17.533 7.866-17.533 17.534v148.297c0 36.662 29.661 66.49 66.12 66.49h14.862z"/><path d="m284.056 274.155h20.615c4.151 0 7.514-3.364 7.514-7.514s-3.364-7.515-7.514-7.515h-20.615c-4.151 0-7.514 3.364-7.514 7.515-.001 4.149 3.363 7.514 7.514 7.514z"/><path d="m129.439 259.125c-4.15 0-7.514 3.364-7.514 7.515 0 4.15 3.364 7.514 7.514 7.514h20.615c4.15 0 7.514-3.364 7.514-7.514s-3.364-7.515-7.514-7.515z"/><path d="m180.977 259.125c-4.15 0-7.514 3.364-7.514 7.515 0 4.15 3.364 7.514 7.514 7.514h20.615c4.15 0 7.514-3.364 7.514-7.514s-3.364-7.515-7.514-7.515z"/><path d="m232.516 259.125c-4.15 0-7.514 3.364-7.514 7.515 0 4.15 3.364 7.514 7.514 7.514h20.616c4.151 0 7.514-3.364 7.514-7.514s-3.364-7.515-7.514-7.515z"/></g></g></svg>